<?xml version="1.0" encoding="UTF-8" standalone="no"?>
<!DOCTYPE svg PUBLIC "-//W3C//DTD SVG 1.1//EN"
 "http://www.w3.org/Graphics/SVG/1.1/DTD/svg11.dtd">
<!-- Generated by graphviz version 2.40.1 (20161225.0304)
 -->
<!-- Title: classes_Camp2Code_P1 Pages: 1 -->
<svg width="1982pt" height="785pt"
 viewBox="0.00 0.00 1982.00 785.00" xmlns="http://www.w3.org/2000/svg" xmlns:xlink="http://www.w3.org/1999/xlink">
<g id="graph0" class="graph" transform="scale(1 1) rotate(0) translate(4 781)">
<title>classes_Camp2Code_P1</title>
<polygon fill="#ffffff" stroke="transparent" points="-4,4 -4,-781 1978,-781 1978,4 -4,4"/>
<!-- Camp2Code_P1.basisklassen.BackWheels -->
<g id="node1" class="node">
<title>Camp2Code_P1.basisklassen.BackWheels</title>
<polygon fill="none" stroke="#000000" points="85,-331.5 85,-595.5 219,-595.5 219,-331.5 85,-331.5"/>
<text text-anchor="start" x="117" y="-580.3" font-family="Times,serif" font-size="14.00" fill="#000000">BackWheels</text>
<polyline fill="none" stroke="#000000" points="85,-572.5 219,-572.5 "/>
<text text-anchor="start" x="93" y="-557.3" font-family="Times,serif" font-size="14.00" fill="#000000">BUS_NUMBER : int</text>
<text text-anchor="start" x="93" y="-542.3" font-family="Times,serif" font-size="14.00" fill="#000000">MOTOR_A : int</text>
<text text-anchor="start" x="93" y="-527.3" font-family="Times,serif" font-size="14.00" fill="#000000">MOTOR_B : int</text>
<text text-anchor="start" x="93" y="-512.3" font-family="Times,serif" font-size="14.00" fill="#000000">PWM_A : int</text>
<text text-anchor="start" x="93" y="-497.3" font-family="Times,serif" font-size="14.00" fill="#000000">PWM_B : int</text>
<text text-anchor="start" x="93" y="-482.3" font-family="Times,serif" font-size="14.00" fill="#000000">forward_A : int</text>
<text text-anchor="start" x="93" y="-467.3" font-family="Times,serif" font-size="14.00" fill="#000000">forward_B : int</text>
<text text-anchor="start" x="93" y="-452.3" font-family="Times,serif" font-size="14.00" fill="#000000">left_wheel</text>
<text text-anchor="start" x="93" y="-437.3" font-family="Times,serif" font-size="14.00" fill="#000000">pwm</text>
<text text-anchor="start" x="93" y="-422.3" font-family="Times,serif" font-size="14.00" fill="#000000">right_wheel</text>
<text text-anchor="start" x="93" y="-407.3" font-family="Times,serif" font-size="14.00" fill="#000000">speed</text>
<polyline fill="none" stroke="#000000" points="85,-399.5 219,-399.5 "/>
<text text-anchor="start" x="102.5" y="-384.3" font-family="Times,serif" font-size="14.00" fill="#000000">backward(): None</text>
<text text-anchor="start" x="102.5" y="-369.3" font-family="Times,serif" font-size="14.00" fill="#000000">forward(): None</text>
<text text-anchor="start" x="102.5" y="-354.3" font-family="Times,serif" font-size="14.00" fill="#000000">stop(): None</text>
<text text-anchor="start" x="102.5" y="-339.3" font-family="Times,serif" font-size="14.00" fill="#000000">test(t: int): None</text>
</g>
<!-- Camp2Code_P1.basecar.BaseCar -->
<g id="node2" class="node">
<title>Camp2Code_P1.basecar.BaseCar</title>
<polygon fill="none" stroke="#000000" points="438.5,-.5 438.5,-279.5 887.5,-279.5 887.5,-.5 438.5,-.5"/>
<text text-anchor="start" x="640" y="-264.3" font-family="Times,serif" font-size="14.00" fill="#000000">BaseCar</text>
<polyline fill="none" stroke="#000000" points="438.5,-256.5 887.5,-256.5 "/>
<text text-anchor="start" x="590.5" y="-241.3" font-family="Times,serif" font-size="14.00" fill="#000000">backwheels</text>
<text text-anchor="start" x="590.5" y="-226.3" font-family="Times,serif" font-size="14.00" fill="#000000">configdata</text>
<text text-anchor="start" x="590.5" y="-211.3" font-family="Times,serif" font-size="14.00" fill="#000000">direction</text>
<text text-anchor="start" x="590.5" y="-196.3" font-family="Times,serif" font-size="14.00" fill="#000000">forward_A : int</text>
<text text-anchor="start" x="590.5" y="-181.3" font-family="Times,serif" font-size="14.00" fill="#000000">forward_B : int</text>
<text text-anchor="start" x="590.5" y="-166.3" font-family="Times,serif" font-size="14.00" fill="#000000">frontwheels</text>
<text text-anchor="start" x="590.5" y="-151.3" font-family="Times,serif" font-size="14.00" fill="#000000">ismanually_stopped : bool</text>
<text text-anchor="start" x="590.5" y="-136.3" font-family="Times,serif" font-size="14.00" fill="#000000">speed</text>
<text text-anchor="start" x="590.5" y="-121.3" font-family="Times,serif" font-size="14.00" fill="#000000">steering_angle</text>
<text text-anchor="start" x="590.5" y="-106.3" font-family="Times,serif" font-size="14.00" fill="#000000">turning_offset : int</text>
<polyline fill="none" stroke="#000000" points="438.5,-98.5 887.5,-98.5 "/>
<text text-anchor="start" x="446.5" y="-83.3" font-family="Times,serif" font-size="14.00" fill="#000000">drive(speed, steering_angle)</text>
<text text-anchor="start" x="446.5" y="-68.3" font-family="Times,serif" font-size="14.00" fill="#000000">fahrmodus_1(speed)</text>
<text text-anchor="start" x="446.5" y="-53.3" font-family="Times,serif" font-size="14.00" fill="#000000">fahrmodus_2(speed)</text>
<text text-anchor="start" x="446.5" y="-38.3" font-family="Times,serif" font-size="14.00" fill="#000000">loggen(time, speed, direction, steering_angle, distance, ir_value, f_modus)</text>
<text text-anchor="start" x="446.5" y="-23.3" font-family="Times,serif" font-size="14.00" fill="#000000">set_fahren_und_warten(speed, steering_angle, wait_time, start_time, f_modus)</text>
<text text-anchor="start" x="446.5" y="-8.3" font-family="Times,serif" font-size="14.00" fill="#000000">stop()</text>
</g>
<!-- Camp2Code_P1.app_data.Data -->
<g id="node3" class="node">
<title>Camp2Code_P1.app_data.Data</title>
<polygon fill="none" stroke="#000000" points="905.5,-98 905.5,-182 1106.5,-182 1106.5,-98 905.5,-98"/>
<text text-anchor="start" x="993" y="-166.8" font-family="Times,serif" font-size="14.00" fill="#000000">Data</text>
<polyline fill="none" stroke="#000000" points="905.5,-159 1106.5,-159 "/>
<text text-anchor="start" x="913.5" y="-143.8" font-family="Times,serif" font-size="14.00" fill="#000000">df : TextFileReader</text>
<text text-anchor="start" x="913.5" y="-128.8" font-family="Times,serif" font-size="14.00" fill="#000000">result_df : DataFrame, NoneType</text>
<polyline fill="none" stroke="#000000" points="905.5,-121 1106.5,-121 "/>
<text text-anchor="start" x="975" y="-105.8" font-family="Times,serif" font-size="14.00" fill="#000000">read_data()</text>
</g>
<!-- Camp2Code_P1.basisklassen.FrontWheels -->
<g id="node4" class="node">
<title>Camp2Code_P1.basisklassen.FrontWheels</title>
<polygon fill="none" stroke="#000000" points="185,-647.5 185,-776.5 397,-776.5 397,-647.5 185,-647.5"/>
<text text-anchor="start" x="255.5" y="-761.3" font-family="Times,serif" font-size="14.00" fill="#000000">FrontWheels</text>
<polyline fill="none" stroke="#000000" points="185,-753.5 397,-753.5 "/>
<text text-anchor="start" x="193" y="-738.3" font-family="Times,serif" font-size="14.00" fill="#000000">BUS_NUMBER : int</text>
<text text-anchor="start" x="193" y="-723.3" font-family="Times,serif" font-size="14.00" fill="#000000">FRONT_WHEEL_CHANNEL : int</text>
<text text-anchor="start" x="193" y="-708.3" font-family="Times,serif" font-size="14.00" fill="#000000">MAX_TURNING_ANGLE : int</text>
<polyline fill="none" stroke="#000000" points="185,-700.5 397,-700.5 "/>
<text text-anchor="start" x="239" y="-685.3" font-family="Times,serif" font-size="14.00" fill="#000000">get_angles(): dict</text>
<text text-anchor="start" x="239" y="-670.3" font-family="Times,serif" font-size="14.00" fill="#000000">test(): None</text>
<text text-anchor="start" x="239" y="-655.3" font-family="Times,serif" font-size="14.00" fill="#000000">turn(angle: int): int</text>
</g>
<!-- Camp2Code_P1.basisklassen.Infrared -->
<g id="node5" class="node">
<title>Camp2Code_P1.basisklassen.Infrared</title>
<polygon fill="none" stroke="#000000" points="1124.5,-68 1124.5,-212 1303.5,-212 1303.5,-68 1124.5,-68"/>
<text text-anchor="start" x="1192" y="-196.8" font-family="Times,serif" font-size="14.00" fill="#000000">Infrared</text>
<polyline fill="none" stroke="#000000" points="1124.5,-189 1303.5,-189 "/>
<text text-anchor="start" x="1170" y="-173.8" font-family="Times,serif" font-size="14.00" fill="#000000">ADDRESS : int</text>
<polyline fill="none" stroke="#000000" points="1124.5,-166 1303.5,-166 "/>
<text text-anchor="start" x="1132.5" y="-150.8" font-family="Times,serif" font-size="14.00" fill="#000000">cali_references(): None</text>
<text text-anchor="start" x="1132.5" y="-135.8" font-family="Times,serif" font-size="14.00" fill="#000000">get_average(mount: int): list</text>
<text text-anchor="start" x="1132.5" y="-120.8" font-family="Times,serif" font-size="14.00" fill="#000000">read_analog(trys: int): list</text>
<text text-anchor="start" x="1132.5" y="-105.8" font-family="Times,serif" font-size="14.00" fill="#000000">read_digital(): list</text>
<text text-anchor="start" x="1132.5" y="-90.8" font-family="Times,serif" font-size="14.00" fill="#000000">set_references(ref: list): None</text>
<text text-anchor="start" x="1132.5" y="-75.8" font-family="Times,serif" font-size="14.00" fill="#000000">test(): None</text>
</g>
<!-- Camp2Code_P1.basisklassen.Motor -->
<g id="node6" class="node">
<title>Camp2Code_P1.basisklassen.Motor</title>
<polygon fill="none" stroke="#000000" points="0,-45.5 0,-234.5 142,-234.5 142,-45.5 0,-45.5"/>
<text text-anchor="start" x="53.5" y="-219.3" font-family="Times,serif" font-size="14.00" fill="#000000">Motor</text>
<polyline fill="none" stroke="#000000" points="0,-211.5 142,-211.5 "/>
<text text-anchor="start" x="8" y="-196.3" font-family="Times,serif" font-size="14.00" fill="#000000">backward_offset : bool</text>
<text text-anchor="start" x="8" y="-181.3" font-family="Times,serif" font-size="14.00" fill="#000000">debug</text>
<text text-anchor="start" x="8" y="-166.3" font-family="Times,serif" font-size="14.00" fill="#000000">direction_channel</text>
<text text-anchor="start" x="8" y="-151.3" font-family="Times,serif" font-size="14.00" fill="#000000">forward_offset : bool</text>
<text text-anchor="start" x="8" y="-136.3" font-family="Times,serif" font-size="14.00" fill="#000000">offset</text>
<text text-anchor="start" x="8" y="-121.3" font-family="Times,serif" font-size="14.00" fill="#000000">pwm</text>
<text text-anchor="start" x="8" y="-106.3" font-family="Times,serif" font-size="14.00" fill="#000000">speed</text>
<polyline fill="none" stroke="#000000" points="0,-98.5 142,-98.5 "/>
<text text-anchor="start" x="40" y="-83.3" font-family="Times,serif" font-size="14.00" fill="#000000">backward()</text>
<text text-anchor="start" x="40" y="-68.3" font-family="Times,serif" font-size="14.00" fill="#000000">forward()</text>
<text text-anchor="start" x="40" y="-53.3" font-family="Times,serif" font-size="14.00" fill="#000000">stop()</text>
</g>
<!-- Camp2Code_P1.basisklassen.Motor&#45;&gt;Camp2Code_P1.basisklassen.BackWheels -->
<g id="edge1" class="edge">
<title>Camp2Code_P1.basisklassen.Motor&#45;&gt;Camp2Code_P1.basisklassen.BackWheels</title>
<path fill="none" stroke="#000000" d="M63.3787,-234.8632C63.5191,-260.5356 65.7169,-288.1004 72,-313 74.215,-321.7777 77.0431,-330.6068 80.3061,-339.3497"/>
<polygon fill="#000000" stroke="#000000" points="80.4147,-339.6243 86.3423,-343.7309 84.8313,-350.782 78.9038,-346.6753 80.4147,-339.6243"/>
<text text-anchor="middle" x="101" y="-301.8" font-family="Times,serif" font-size="14.00" fill="#00ff00">left_wheel</text>
</g>
<!-- Camp2Code_P1.basisklassen.Motor&#45;&gt;Camp2Code_P1.basisklassen.BackWheels -->
<g id="edge2" class="edge">
<title>Camp2Code_P1.basisklassen.Motor&#45;&gt;Camp2Code_P1.basisklassen.BackWheels</title>
<path fill="none" stroke="#000000" d="M110.2508,-234.5719C117.7006,-255.2058 124.7847,-277.1202 130,-298 131.7308,-304.9293 133.3322,-312.0579 134.8131,-319.2834"/>
<polygon fill="#000000" stroke="#000000" points="134.8214,-319.3262 139.8953,-324.4502 137.117,-331.1046 132.0431,-325.9806 134.8214,-319.3262"/>
<text text-anchor="middle" x="166.5" y="-301.8" font-family="Times,serif" font-size="14.00" fill="#00ff00">right_wheel</text>
</g>
<!-- Camp2Code_P1.basisklassen.PWM -->
<g id="node7" class="node">
<title>Camp2Code_P1.basisklassen.PWM</title>
<polygon fill="none" stroke="#000000" points="160,-53 160,-227 420,-227 420,-53 160,-53"/>
<text text-anchor="start" x="273" y="-211.8" font-family="Times,serif" font-size="14.00" fill="#000000">PWM</text>
<polyline fill="none" stroke="#000000" points="160,-204 420,-204 "/>
<text text-anchor="start" x="243" y="-188.8" font-family="Times,serif" font-size="14.00" fill="#000000">address : int</text>
<text text-anchor="start" x="243" y="-173.8" font-family="Times,serif" font-size="14.00" fill="#000000">bus</text>
<text text-anchor="start" x="243" y="-158.8" font-family="Times,serif" font-size="14.00" fill="#000000">bus_number : int</text>
<text text-anchor="start" x="243" y="-143.8" font-family="Times,serif" font-size="14.00" fill="#000000">debug</text>
<text text-anchor="start" x="243" y="-128.8" font-family="Times,serif" font-size="14.00" fill="#000000">frequency</text>
<polyline fill="none" stroke="#000000" points="160,-121 420,-121 "/>
<text text-anchor="start" x="168" y="-105.8" font-family="Times,serif" font-size="14.00" fill="#000000">map(x, in_min, in_max, out_min, out_max)</text>
<text text-anchor="start" x="168" y="-90.8" font-family="Times,serif" font-size="14.00" fill="#000000">setup()</text>
<text text-anchor="start" x="168" y="-75.8" font-family="Times,serif" font-size="14.00" fill="#000000">write(channel, on, off)</text>
<text text-anchor="start" x="168" y="-60.8" font-family="Times,serif" font-size="14.00" fill="#000000">write_all_value(on, off)</text>
</g>
<!-- Camp2Code_P1.basisklassen.PWM&#45;&gt;Camp2Code_P1.basisklassen.BackWheels -->
<g id="edge3" class="edge">
<title>Camp2Code_P1.basisklassen.PWM&#45;&gt;Camp2Code_P1.basisklassen.BackWheels</title>
<path fill="none" stroke="#000000" d="M252.837,-227.1176C240.5899,-255.8272 226.629,-288.5545 213.0808,-320.3143"/>
<polygon fill="#000000" stroke="#000000" points="213.0178,-320.4619 214.3428,-327.5503 208.3093,-331.4996 206.9843,-324.4113 213.0178,-320.4619"/>
<text text-anchor="middle" x="235" y="-301.8" font-family="Times,serif" font-size="14.00" fill="#00ff00">pwm</text>
</g>
<!-- Camp2Code_P1.basisklassen.Servo -->
<g id="node9" class="node">
<title>Camp2Code_P1.basisklassen.Servo</title>
<polygon fill="none" stroke="#000000" points="249.5,-384 249.5,-543 332.5,-543 332.5,-384 249.5,-384"/>
<text text-anchor="start" x="275" y="-527.8" font-family="Times,serif" font-size="14.00" fill="#000000">Servo</text>
<polyline fill="none" stroke="#000000" points="249.5,-520 332.5,-520 "/>
<text text-anchor="start" x="261.5" y="-504.8" font-family="Times,serif" font-size="14.00" fill="#000000">channel</text>
<text text-anchor="start" x="261.5" y="-489.8" font-family="Times,serif" font-size="14.00" fill="#000000">debug</text>
<text text-anchor="start" x="261.5" y="-474.8" font-family="Times,serif" font-size="14.00" fill="#000000">frequency</text>
<text text-anchor="start" x="261.5" y="-459.8" font-family="Times,serif" font-size="14.00" fill="#000000">lock : bool</text>
<text text-anchor="start" x="261.5" y="-444.8" font-family="Times,serif" font-size="14.00" fill="#000000">offset</text>
<text text-anchor="start" x="261.5" y="-429.8" font-family="Times,serif" font-size="14.00" fill="#000000">pwm</text>
<polyline fill="none" stroke="#000000" points="249.5,-422 332.5,-422 "/>
<text text-anchor="start" x="257.5" y="-406.8" font-family="Times,serif" font-size="14.00" fill="#000000">setup()</text>
<text text-anchor="start" x="257.5" y="-391.8" font-family="Times,serif" font-size="14.00" fill="#000000">write(angle)</text>
</g>
<!-- Camp2Code_P1.basisklassen.PWM&#45;&gt;Camp2Code_P1.basisklassen.Servo -->
<g id="edge4" class="edge">
<title>Camp2Code_P1.basisklassen.PWM&#45;&gt;Camp2Code_P1.basisklassen.Servo</title>
<path fill="none" stroke="#000000" d="M290.2693,-227.1176C290.4076,-271.8591 290.5761,-326.3583 290.7164,-371.7468"/>
<polygon fill="#000000" stroke="#000000" points="290.717,-371.9868 294.7356,-377.9744 290.7542,-383.9867 286.7356,-377.9992 290.717,-371.9868"/>
<text text-anchor="middle" x="304" y="-301.8" font-family="Times,serif" font-size="14.00" fill="#00ff00">pwm</text>
</g>
<!-- Camp2Code_P1.sensorcar.SensorCar -->
<g id="node8" class="node">
<title>Camp2Code_P1.sensorcar.SensorCar</title>
<polygon fill="none" stroke="#000000" points="1321.5,-60.5 1321.5,-219.5 1570.5,-219.5 1570.5,-60.5 1321.5,-60.5"/>
<text text-anchor="start" x="1417.5" y="-204.3" font-family="Times,serif" font-size="14.00" fill="#000000">SensorCar</text>
<polyline fill="none" stroke="#000000" points="1321.5,-196.5 1570.5,-196.5 "/>
<text text-anchor="start" x="1402.5" y="-181.3" font-family="Times,serif" font-size="14.00" fill="#000000">data</text>
<text text-anchor="start" x="1402.5" y="-166.3" font-family="Times,serif" font-size="14.00" fill="#000000">get_infrared</text>
<text text-anchor="start" x="1402.5" y="-151.3" font-family="Times,serif" font-size="14.00" fill="#000000">get_moduswahl</text>
<text text-anchor="start" x="1402.5" y="-136.3" font-family="Times,serif" font-size="14.00" fill="#000000">infrared</text>
<polyline fill="none" stroke="#000000" points="1321.5,-128.5 1570.5,-128.5 "/>
<text text-anchor="start" x="1329.5" y="-113.3" font-family="Times,serif" font-size="14.00" fill="#000000">fahrmodus(fmodus, speed, angle, mindist)</text>
<text text-anchor="start" x="1329.5" y="-98.3" font-family="Times,serif" font-size="14.00" fill="#000000">fahrmodus_5_6_7(speed, angle, modus)</text>
<text text-anchor="start" x="1329.5" y="-83.3" font-family="Times,serif" font-size="14.00" fill="#000000">ir_cali()</text>
<text text-anchor="start" x="1329.5" y="-68.3" font-family="Times,serif" font-size="14.00" fill="#000000">save_reference(reference)</text>
</g>
<!-- Camp2Code_P1.basisklassen.Servo&#45;&gt;Camp2Code_P1.basisklassen.FrontWheels -->
<g id="edge5" class="edge">
<title>Camp2Code_P1.basisklassen.Servo&#45;&gt;Camp2Code_P1.basisklassen.FrontWheels</title>
<path fill="none" stroke="#000000" d="M291,-543.1523C291,-572.592 291,-605.883 291,-635.0761"/>
<polygon fill="#000000" stroke="#000000" points="291.0001,-635.3133 295,-641.3134 291,-647.3133 287,-641.3133 291.0001,-635.3133"/>
<text text-anchor="middle" x="309.5" y="-617.8" font-family="Times,serif" font-size="14.00" fill="#00ff00">_servo</text>
</g>
<!-- Camp2Code_P1.soniccar.SonicCar -->
<g id="node10" class="node">
<title>Camp2Code_P1.soniccar.SonicCar</title>
<polygon fill="none" stroke="#000000" points="1588.5,-90.5 1588.5,-189.5 1809.5,-189.5 1809.5,-90.5 1588.5,-90.5"/>
<text text-anchor="start" x="1673.5" y="-174.3" font-family="Times,serif" font-size="14.00" fill="#000000">SonicCar</text>
<polyline fill="none" stroke="#000000" points="1588.5,-166.5 1809.5,-166.5 "/>
<text text-anchor="start" x="1665" y="-151.3" font-family="Times,serif" font-size="14.00" fill="#000000">get_distance</text>
<text text-anchor="start" x="1665" y="-136.3" font-family="Times,serif" font-size="14.00" fill="#000000">ultrasonic</text>
<polyline fill="none" stroke="#000000" points="1588.5,-128.5 1809.5,-128.5 "/>
<text text-anchor="start" x="1596.5" y="-113.3" font-family="Times,serif" font-size="14.00" fill="#000000">fahrmodus_3(min_dist, speed, angle)</text>
<text text-anchor="start" x="1596.5" y="-98.3" font-family="Times,serif" font-size="14.00" fill="#000000">fahrmodus_4(speed, lenken)</text>
</g>
<!-- Camp2Code_P1.basisklassen.Ultrasonic -->
<g id="node11" class="node">
<title>Camp2Code_P1.basisklassen.Ultrasonic</title>
<polygon fill="none" stroke="#000000" points="1828,-68 1828,-212 1974,-212 1974,-68 1828,-68"/>
<text text-anchor="start" x="1872.5" y="-196.8" font-family="Times,serif" font-size="14.00" fill="#000000">Ultrasonic</text>
<polyline fill="none" stroke="#000000" points="1828,-189 1974,-189 "/>
<text text-anchor="start" x="1836" y="-173.8" font-family="Times,serif" font-size="14.00" fill="#000000">CHANNEL : int</text>
<text text-anchor="start" x="1836" y="-158.8" font-family="Times,serif" font-size="14.00" fill="#000000">implus_length : float</text>
<text text-anchor="start" x="1836" y="-143.8" font-family="Times,serif" font-size="14.00" fill="#000000">preparation_time : float</text>
<text text-anchor="start" x="1836" y="-128.8" font-family="Times,serif" font-size="14.00" fill="#000000">timeout : float</text>
<polyline fill="none" stroke="#000000" points="1828,-121 1974,-121 "/>
<text text-anchor="start" x="1863" y="-105.8" font-family="Times,serif" font-size="14.00" fill="#000000">distance(): int</text>
<text text-anchor="start" x="1863" y="-90.8" font-family="Times,serif" font-size="14.00" fill="#000000">stop(): None</text>
<text text-anchor="start" x="1863" y="-75.8" font-family="Times,serif" font-size="14.00" fill="#000000">test(): None</text>
</g>
</g>
</svg>
