<?xml version="1.0" encoding="UTF-8" standalone="no"?>
<!DOCTYPE svg PUBLIC "-//W3C//DTD SVG 1.1//EN"
 "http://www.w3.org/Graphics/SVG/1.1/DTD/svg11.dtd">
<!-- Generated by graphviz version 2.40.1 (20161225.0304)
 -->
<!-- Title: classes_Camp2Code_P1 Pages: 1 -->
<svg width="2551pt" height="800pt"
 viewBox="0.00 0.00 2551.00 800.00" xmlns="http://www.w3.org/2000/svg" xmlns:xlink="http://www.w3.org/1999/xlink">
<g id="graph0" class="graph" transform="scale(1 1) rotate(0) translate(4 796)">
<title>classes_Camp2Code_P1</title>
<polygon fill="#ffffff" stroke="transparent" points="-4,4 -4,-796 2547,-796 2547,4 -4,4"/>
<!-- Camp2Code_P1.basisklassen.BackWheels -->
<g id="node1" class="node">
<title>Camp2Code_P1.basisklassen.BackWheels</title>
<polygon fill="none" stroke="#000000" points="85,-346.5 85,-610.5 219,-610.5 219,-346.5 85,-346.5"/>
<text text-anchor="start" x="117" y="-595.3" font-family="Times,serif" font-size="14.00" fill="#000000">BackWheels</text>
<polyline fill="none" stroke="#000000" points="85,-587.5 219,-587.5 "/>
<text text-anchor="start" x="93" y="-572.3" font-family="Times,serif" font-size="14.00" fill="#000000">BUS_NUMBER : int</text>
<text text-anchor="start" x="93" y="-557.3" font-family="Times,serif" font-size="14.00" fill="#000000">MOTOR_A : int</text>
<text text-anchor="start" x="93" y="-542.3" font-family="Times,serif" font-size="14.00" fill="#000000">MOTOR_B : int</text>
<text text-anchor="start" x="93" y="-527.3" font-family="Times,serif" font-size="14.00" fill="#000000">PWM_A : int</text>
<text text-anchor="start" x="93" y="-512.3" font-family="Times,serif" font-size="14.00" fill="#000000">PWM_B : int</text>
<text text-anchor="start" x="93" y="-497.3" font-family="Times,serif" font-size="14.00" fill="#000000">forward_A : int</text>
<text text-anchor="start" x="93" y="-482.3" font-family="Times,serif" font-size="14.00" fill="#000000">forward_B : int</text>
<text text-anchor="start" x="93" y="-467.3" font-family="Times,serif" font-size="14.00" fill="#000000">left_wheel</text>
<text text-anchor="start" x="93" y="-452.3" font-family="Times,serif" font-size="14.00" fill="#000000">pwm</text>
<text text-anchor="start" x="93" y="-437.3" font-family="Times,serif" font-size="14.00" fill="#000000">right_wheel</text>
<text text-anchor="start" x="93" y="-422.3" font-family="Times,serif" font-size="14.00" fill="#000000">speed</text>
<polyline fill="none" stroke="#000000" points="85,-414.5 219,-414.5 "/>
<text text-anchor="start" x="102.5" y="-399.3" font-family="Times,serif" font-size="14.00" fill="#000000">backward(): None</text>
<text text-anchor="start" x="102.5" y="-384.3" font-family="Times,serif" font-size="14.00" fill="#000000">forward(): None</text>
<text text-anchor="start" x="102.5" y="-369.3" font-family="Times,serif" font-size="14.00" fill="#000000">stop(): None</text>
<text text-anchor="start" x="102.5" y="-354.3" font-family="Times,serif" font-size="14.00" fill="#000000">test(t: int): None</text>
</g>
<!-- Camp2Code_P1.basecar.BaseCar -->
<g id="node2" class="node">
<title>Camp2Code_P1.basecar.BaseCar</title>
<polygon fill="none" stroke="#000000" points="438.5,-.5 438.5,-294.5 923.5,-294.5 923.5,-.5 438.5,-.5"/>
<text text-anchor="start" x="658" y="-279.3" font-family="Times,serif" font-size="14.00" fill="#000000">BaseCar</text>
<polyline fill="none" stroke="#000000" points="438.5,-271.5 923.5,-271.5 "/>
<text text-anchor="start" x="608.5" y="-256.3" font-family="Times,serif" font-size="14.00" fill="#000000">backwheels</text>
<text text-anchor="start" x="608.5" y="-241.3" font-family="Times,serif" font-size="14.00" fill="#000000">configdata</text>
<text text-anchor="start" x="608.5" y="-226.3" font-family="Times,serif" font-size="14.00" fill="#000000">direction</text>
<text text-anchor="start" x="608.5" y="-211.3" font-family="Times,serif" font-size="14.00" fill="#000000">forward_A : int</text>
<text text-anchor="start" x="608.5" y="-196.3" font-family="Times,serif" font-size="14.00" fill="#000000">forward_B : int</text>
<text text-anchor="start" x="608.5" y="-181.3" font-family="Times,serif" font-size="14.00" fill="#000000">frontwheels</text>
<text text-anchor="start" x="608.5" y="-166.3" font-family="Times,serif" font-size="14.00" fill="#000000">ismanually_stopped : bool</text>
<text text-anchor="start" x="608.5" y="-151.3" font-family="Times,serif" font-size="14.00" fill="#000000">speed</text>
<text text-anchor="start" x="608.5" y="-136.3" font-family="Times,serif" font-size="14.00" fill="#000000">start_time : int</text>
<text text-anchor="start" x="608.5" y="-121.3" font-family="Times,serif" font-size="14.00" fill="#000000">steering_angle</text>
<text text-anchor="start" x="608.5" y="-106.3" font-family="Times,serif" font-size="14.00" fill="#000000">turning_offset : int</text>
<polyline fill="none" stroke="#000000" points="438.5,-98.5 923.5,-98.5 "/>
<text text-anchor="start" x="446.5" y="-83.3" font-family="Times,serif" font-size="14.00" fill="#000000">drive(speed, steering_angle)</text>
<text text-anchor="start" x="446.5" y="-68.3" font-family="Times,serif" font-size="14.00" fill="#000000">fahrmodus_1(speed)</text>
<text text-anchor="start" x="446.5" y="-53.3" font-family="Times,serif" font-size="14.00" fill="#000000">fahrmodus_2(speed)</text>
<text text-anchor="start" x="446.5" y="-38.3" font-family="Times,serif" font-size="14.00" fill="#000000">loggen(time, speed, direction, steering_angle, distance, ir_value, f_modus)</text>
<text text-anchor="start" x="446.5" y="-23.3" font-family="Times,serif" font-size="14.00" fill="#000000">set_fahren_und_warten(speed: int, steering_angle: int, wait_time: float, f_modus: int)</text>
<text text-anchor="start" x="446.5" y="-8.3" font-family="Times,serif" font-size="14.00" fill="#000000">stop()</text>
</g>
<!-- Camp2Code_P1.app_data.Data -->
<g id="node3" class="node">
<title>Camp2Code_P1.app_data.Data</title>
<polygon fill="none" stroke="#000000" points="941.5,-105.5 941.5,-189.5 1142.5,-189.5 1142.5,-105.5 941.5,-105.5"/>
<text text-anchor="start" x="1029" y="-174.3" font-family="Times,serif" font-size="14.00" fill="#000000">Data</text>
<polyline fill="none" stroke="#000000" points="941.5,-166.5 1142.5,-166.5 "/>
<text text-anchor="start" x="949.5" y="-151.3" font-family="Times,serif" font-size="14.00" fill="#000000">df : TextFileReader</text>
<text text-anchor="start" x="949.5" y="-136.3" font-family="Times,serif" font-size="14.00" fill="#000000">result_df : DataFrame, NoneType</text>
<polyline fill="none" stroke="#000000" points="941.5,-128.5 1142.5,-128.5 "/>
<text text-anchor="start" x="1011" y="-113.3" font-family="Times,serif" font-size="14.00" fill="#000000">read_data()</text>
</g>
<!-- Camp2Code_P1.basisklassen.FrontWheels -->
<g id="node4" class="node">
<title>Camp2Code_P1.basisklassen.FrontWheels</title>
<polygon fill="none" stroke="#000000" points="185,-662.5 185,-791.5 397,-791.5 397,-662.5 185,-662.5"/>
<text text-anchor="start" x="255.5" y="-776.3" font-family="Times,serif" font-size="14.00" fill="#000000">FrontWheels</text>
<polyline fill="none" stroke="#000000" points="185,-768.5 397,-768.5 "/>
<text text-anchor="start" x="193" y="-753.3" font-family="Times,serif" font-size="14.00" fill="#000000">BUS_NUMBER : int</text>
<text text-anchor="start" x="193" y="-738.3" font-family="Times,serif" font-size="14.00" fill="#000000">FRONT_WHEEL_CHANNEL : int</text>
<text text-anchor="start" x="193" y="-723.3" font-family="Times,serif" font-size="14.00" fill="#000000">MAX_TURNING_ANGLE : int</text>
<polyline fill="none" stroke="#000000" points="185,-715.5 397,-715.5 "/>
<text text-anchor="start" x="239" y="-700.3" font-family="Times,serif" font-size="14.00" fill="#000000">get_angles(): dict</text>
<text text-anchor="start" x="239" y="-685.3" font-family="Times,serif" font-size="14.00" fill="#000000">test(): None</text>
<text text-anchor="start" x="239" y="-670.3" font-family="Times,serif" font-size="14.00" fill="#000000">turn(angle: int): int</text>
</g>
<!-- Camp2Code_P1.basisklassen.Infrared -->
<g id="node5" class="node">
<title>Camp2Code_P1.basisklassen.Infrared</title>
<polygon fill="none" stroke="#000000" points="1160.5,-75.5 1160.5,-219.5 1339.5,-219.5 1339.5,-75.5 1160.5,-75.5"/>
<text text-anchor="start" x="1228" y="-204.3" font-family="Times,serif" font-size="14.00" fill="#000000">Infrared</text>
<polyline fill="none" stroke="#000000" points="1160.5,-196.5 1339.5,-196.5 "/>
<text text-anchor="start" x="1206" y="-181.3" font-family="Times,serif" font-size="14.00" fill="#000000">ADDRESS : int</text>
<polyline fill="none" stroke="#000000" points="1160.5,-173.5 1339.5,-173.5 "/>
<text text-anchor="start" x="1168.5" y="-158.3" font-family="Times,serif" font-size="14.00" fill="#000000">cali_references(): None</text>
<text text-anchor="start" x="1168.5" y="-143.3" font-family="Times,serif" font-size="14.00" fill="#000000">get_average(mount: int): list</text>
<text text-anchor="start" x="1168.5" y="-128.3" font-family="Times,serif" font-size="14.00" fill="#000000">read_analog(trys: int): list</text>
<text text-anchor="start" x="1168.5" y="-113.3" font-family="Times,serif" font-size="14.00" fill="#000000">read_digital(): list</text>
<text text-anchor="start" x="1168.5" y="-98.3" font-family="Times,serif" font-size="14.00" fill="#000000">set_references(ref: list): None</text>
<text text-anchor="start" x="1168.5" y="-83.3" font-family="Times,serif" font-size="14.00" fill="#000000">test(): None</text>
</g>
<!-- Camp2Code_P1.basisklassen.Motor -->
<g id="node6" class="node">
<title>Camp2Code_P1.basisklassen.Motor</title>
<polygon fill="none" stroke="#000000" points="0,-53 0,-242 142,-242 142,-53 0,-53"/>
<text text-anchor="start" x="53.5" y="-226.8" font-family="Times,serif" font-size="14.00" fill="#000000">Motor</text>
<polyline fill="none" stroke="#000000" points="0,-219 142,-219 "/>
<text text-anchor="start" x="8" y="-203.8" font-family="Times,serif" font-size="14.00" fill="#000000">backward_offset : bool</text>
<text text-anchor="start" x="8" y="-188.8" font-family="Times,serif" font-size="14.00" fill="#000000">debug</text>
<text text-anchor="start" x="8" y="-173.8" font-family="Times,serif" font-size="14.00" fill="#000000">direction_channel</text>
<text text-anchor="start" x="8" y="-158.8" font-family="Times,serif" font-size="14.00" fill="#000000">forward_offset : bool</text>
<text text-anchor="start" x="8" y="-143.8" font-family="Times,serif" font-size="14.00" fill="#000000">offset</text>
<text text-anchor="start" x="8" y="-128.8" font-family="Times,serif" font-size="14.00" fill="#000000">pwm</text>
<text text-anchor="start" x="8" y="-113.8" font-family="Times,serif" font-size="14.00" fill="#000000">speed</text>
<polyline fill="none" stroke="#000000" points="0,-106 142,-106 "/>
<text text-anchor="start" x="40" y="-90.8" font-family="Times,serif" font-size="14.00" fill="#000000">backward()</text>
<text text-anchor="start" x="40" y="-75.8" font-family="Times,serif" font-size="14.00" fill="#000000">forward()</text>
<text text-anchor="start" x="40" y="-60.8" font-family="Times,serif" font-size="14.00" fill="#000000">stop()</text>
</g>
<!-- Camp2Code_P1.basisklassen.Motor&#45;&gt;Camp2Code_P1.basisklassen.BackWheels -->
<g id="edge1" class="edge">
<title>Camp2Code_P1.basisklassen.Motor&#45;&gt;Camp2Code_P1.basisklassen.BackWheels</title>
<path fill="none" stroke="#000000" d="M63.0158,-242.2626C62.9315,-270.225 65.1027,-300.6528 72,-328 74.2139,-336.778 77.0412,-345.6073 80.3037,-354.3504"/>
<polygon fill="#000000" stroke="#000000" points="80.4122,-354.6248 86.3395,-358.7318 84.8282,-365.7828 78.9009,-361.6758 80.4122,-354.6248"/>
<text text-anchor="middle" x="101" y="-316.8" font-family="Times,serif" font-size="14.00" fill="#00ff00">left_wheel</text>
</g>
<!-- Camp2Code_P1.basisklassen.Motor&#45;&gt;Camp2Code_P1.basisklassen.BackWheels -->
<g id="edge2" class="edge">
<title>Camp2Code_P1.basisklassen.Motor&#45;&gt;Camp2Code_P1.basisklassen.BackWheels</title>
<path fill="none" stroke="#000000" d="M108.6406,-242.2912C116.6463,-265.1632 124.3708,-289.7255 130,-313 131.679,-319.942 133.2386,-327.081 134.6862,-334.3146"/>
<polygon fill="#000000" stroke="#000000" points="134.6948,-334.3598 139.7482,-339.5041 136.9433,-346.1473 131.8899,-341.0031 134.6948,-334.3598"/>
<text text-anchor="middle" x="166.5" y="-316.8" font-family="Times,serif" font-size="14.00" fill="#00ff00">right_wheel</text>
</g>
<!-- Camp2Code_P1.basisklassen.PWM -->
<g id="node7" class="node">
<title>Camp2Code_P1.basisklassen.PWM</title>
<polygon fill="none" stroke="#000000" points="160,-60.5 160,-234.5 420,-234.5 420,-60.5 160,-60.5"/>
<text text-anchor="start" x="273" y="-219.3" font-family="Times,serif" font-size="14.00" fill="#000000">PWM</text>
<polyline fill="none" stroke="#000000" points="160,-211.5 420,-211.5 "/>
<text text-anchor="start" x="243" y="-196.3" font-family="Times,serif" font-size="14.00" fill="#000000">address : int</text>
<text text-anchor="start" x="243" y="-181.3" font-family="Times,serif" font-size="14.00" fill="#000000">bus</text>
<text text-anchor="start" x="243" y="-166.3" font-family="Times,serif" font-size="14.00" fill="#000000">bus_number : int</text>
<text text-anchor="start" x="243" y="-151.3" font-family="Times,serif" font-size="14.00" fill="#000000">debug</text>
<text text-anchor="start" x="243" y="-136.3" font-family="Times,serif" font-size="14.00" fill="#000000">frequency</text>
<polyline fill="none" stroke="#000000" points="160,-128.5 420,-128.5 "/>
<text text-anchor="start" x="168" y="-113.3" font-family="Times,serif" font-size="14.00" fill="#000000">map(x, in_min, in_max, out_min, out_max)</text>
<text text-anchor="start" x="168" y="-98.3" font-family="Times,serif" font-size="14.00" fill="#000000">setup()</text>
<text text-anchor="start" x="168" y="-83.3" font-family="Times,serif" font-size="14.00" fill="#000000">write(channel, on, off)</text>
<text text-anchor="start" x="168" y="-68.3" font-family="Times,serif" font-size="14.00" fill="#000000">write_all_value(on, off)</text>
</g>
<!-- Camp2Code_P1.basisklassen.PWM&#45;&gt;Camp2Code_P1.basisklassen.BackWheels -->
<g id="edge3" class="edge">
<title>Camp2Code_P1.basisklassen.PWM&#45;&gt;Camp2Code_P1.basisklassen.BackWheels</title>
<path fill="none" stroke="#000000" d="M253.5616,-234.8993C240.7912,-265.5299 226.0899,-300.7916 211.9099,-334.803"/>
<polygon fill="#000000" stroke="#000000" points="211.7424,-335.205 213.1255,-342.2822 207.1246,-346.2809 205.7415,-339.2037 211.7424,-335.205"/>
<text text-anchor="middle" x="235" y="-316.8" font-family="Times,serif" font-size="14.00" fill="#00ff00">pwm</text>
</g>
<!-- Camp2Code_P1.basisklassen.Servo -->
<g id="node10" class="node">
<title>Camp2Code_P1.basisklassen.Servo</title>
<polygon fill="none" stroke="#000000" points="249.5,-399 249.5,-558 332.5,-558 332.5,-399 249.5,-399"/>
<text text-anchor="start" x="275" y="-542.8" font-family="Times,serif" font-size="14.00" fill="#000000">Servo</text>
<polyline fill="none" stroke="#000000" points="249.5,-535 332.5,-535 "/>
<text text-anchor="start" x="261.5" y="-519.8" font-family="Times,serif" font-size="14.00" fill="#000000">channel</text>
<text text-anchor="start" x="261.5" y="-504.8" font-family="Times,serif" font-size="14.00" fill="#000000">debug</text>
<text text-anchor="start" x="261.5" y="-489.8" font-family="Times,serif" font-size="14.00" fill="#000000">frequency</text>
<text text-anchor="start" x="261.5" y="-474.8" font-family="Times,serif" font-size="14.00" fill="#000000">lock : bool</text>
<text text-anchor="start" x="261.5" y="-459.8" font-family="Times,serif" font-size="14.00" fill="#000000">offset</text>
<text text-anchor="start" x="261.5" y="-444.8" font-family="Times,serif" font-size="14.00" fill="#000000">pwm</text>
<polyline fill="none" stroke="#000000" points="249.5,-437 332.5,-437 "/>
<text text-anchor="start" x="257.5" y="-421.8" font-family="Times,serif" font-size="14.00" fill="#000000">setup()</text>
<text text-anchor="start" x="257.5" y="-406.8" font-family="Times,serif" font-size="14.00" fill="#000000">write(angle)</text>
</g>
<!-- Camp2Code_P1.basisklassen.PWM&#45;&gt;Camp2Code_P1.basisklassen.Servo -->
<g id="edge4" class="edge">
<title>Camp2Code_P1.basisklassen.PWM&#45;&gt;Camp2Code_P1.basisklassen.Servo</title>
<path fill="none" stroke="#000000" d="M290.264,-234.8993C290.4054,-281.6795 290.5793,-339.2618 290.7226,-386.6951"/>
<polygon fill="#000000" stroke="#000000" points="290.723,-386.8377 294.7411,-392.8255 290.7593,-398.8376 286.7412,-392.8498 290.723,-386.8377"/>
<text text-anchor="middle" x="304" y="-316.8" font-family="Times,serif" font-size="14.00" fill="#00ff00">pwm</text>
</g>
<!-- Camp2Code_P1.app_gui.SaveConfig -->
<g id="node8" class="node">
<title>Camp2Code_P1.app_gui.SaveConfig</title>
<polygon fill="none" stroke="#000000" points="1358,-113 1358,-182 1660,-182 1660,-113 1358,-113"/>
<text text-anchor="start" x="1477" y="-166.8" font-family="Times,serif" font-size="14.00" fill="#000000">SaveConfig</text>
<polyline fill="none" stroke="#000000" points="1358,-159 1660,-159 "/>
<text text-anchor="start" x="1466.5" y="-143.8" font-family="Times,serif" font-size="14.00" fill="#000000">configdata : list</text>
<polyline fill="none" stroke="#000000" points="1358,-136 1660,-136 "/>
<text text-anchor="start" x="1366" y="-120.8" font-family="Times,serif" font-size="14.00" fill="#000000">save_config(Vmax: int, LWmax: int, DISTmin: int)</text>
</g>
<!-- Camp2Code_P1.sensorcar.SensorCar -->
<g id="node9" class="node">
<title>Camp2Code_P1.sensorcar.SensorCar</title>
<polygon fill="none" stroke="#000000" points="1678.5,-68 1678.5,-227 1963.5,-227 1963.5,-68 1678.5,-68"/>
<text text-anchor="start" x="1792.5" y="-211.8" font-family="Times,serif" font-size="14.00" fill="#000000">SensorCar</text>
<polyline fill="none" stroke="#000000" points="1678.5,-204 1963.5,-204 "/>
<text text-anchor="start" x="1777.5" y="-188.8" font-family="Times,serif" font-size="14.00" fill="#000000">data</text>
<text text-anchor="start" x="1777.5" y="-173.8" font-family="Times,serif" font-size="14.00" fill="#000000">get_infrared</text>
<text text-anchor="start" x="1777.5" y="-158.8" font-family="Times,serif" font-size="14.00" fill="#000000">get_moduswahl</text>
<text text-anchor="start" x="1777.5" y="-143.8" font-family="Times,serif" font-size="14.00" fill="#000000">infrared</text>
<polyline fill="none" stroke="#000000" points="1678.5,-136 1963.5,-136 "/>
<text text-anchor="start" x="1686.5" y="-120.8" font-family="Times,serif" font-size="14.00" fill="#000000">fahrmodus(fmodus, speed, angle, mindist)</text>
<text text-anchor="start" x="1686.5" y="-105.8" font-family="Times,serif" font-size="14.00" fill="#000000">fahrmodus_5_6_7(speed, angle, modus, mindist)</text>
<text text-anchor="start" x="1686.5" y="-90.8" font-family="Times,serif" font-size="14.00" fill="#000000">ir_cali()</text>
<text text-anchor="start" x="1686.5" y="-75.8" font-family="Times,serif" font-size="14.00" fill="#000000">save_reference(reference)</text>
</g>
<!-- Camp2Code_P1.basisklassen.Servo&#45;&gt;Camp2Code_P1.basisklassen.FrontWheels -->
<g id="edge5" class="edge">
<title>Camp2Code_P1.basisklassen.Servo&#45;&gt;Camp2Code_P1.basisklassen.FrontWheels</title>
<path fill="none" stroke="#000000" d="M291,-558.1523C291,-587.592 291,-620.883 291,-650.0761"/>
<polygon fill="#000000" stroke="#000000" points="291.0001,-650.3133 295,-656.3134 291,-662.3133 287,-656.3133 291.0001,-650.3133"/>
<text text-anchor="middle" x="309.5" y="-632.8" font-family="Times,serif" font-size="14.00" fill="#00ff00">_servo</text>
</g>
<!-- Camp2Code_P1.soniccar.SonicCar -->
<g id="node11" class="node">
<title>Camp2Code_P1.soniccar.SonicCar</title>
<polygon fill="none" stroke="#000000" points="1981.5,-83 1981.5,-212 2378.5,-212 2378.5,-83 1981.5,-83"/>
<text text-anchor="start" x="2154.5" y="-196.8" font-family="Times,serif" font-size="14.00" fill="#000000">SonicCar</text>
<polyline fill="none" stroke="#000000" points="1981.5,-189 2378.5,-189 "/>
<text text-anchor="start" x="2146" y="-173.8" font-family="Times,serif" font-size="14.00" fill="#000000">get_distance</text>
<text text-anchor="start" x="2146" y="-158.8" font-family="Times,serif" font-size="14.00" fill="#000000">start_time</text>
<text text-anchor="start" x="2146" y="-143.8" font-family="Times,serif" font-size="14.00" fill="#000000">ultrasonic</text>
<polyline fill="none" stroke="#000000" points="1981.5,-136 2378.5,-136 "/>
<text text-anchor="start" x="1989.5" y="-120.8" font-family="Times,serif" font-size="14.00" fill="#000000">fahrmodus_3(min_dist, speed, angle)</text>
<text text-anchor="start" x="1989.5" y="-105.8" font-family="Times,serif" font-size="14.00" fill="#000000">fahrmodus_4(min_dist, speed, angle)</text>
<text text-anchor="start" x="1989.5" y="-90.8" font-family="Times,serif" font-size="14.00" fill="#000000">set_fahren(speed: int, steering_angle: int, min_dist: int, f_modus: int)</text>
</g>
<!-- Camp2Code_P1.basisklassen.Ultrasonic -->
<g id="node12" class="node">
<title>Camp2Code_P1.basisklassen.Ultrasonic</title>
<polygon fill="none" stroke="#000000" points="2397,-75.5 2397,-219.5 2543,-219.5 2543,-75.5 2397,-75.5"/>
<text text-anchor="start" x="2441.5" y="-204.3" font-family="Times,serif" font-size="14.00" fill="#000000">Ultrasonic</text>
<polyline fill="none" stroke="#000000" points="2397,-196.5 2543,-196.5 "/>
<text text-anchor="start" x="2405" y="-181.3" font-family="Times,serif" font-size="14.00" fill="#000000">CHANNEL : int</text>
<text text-anchor="start" x="2405" y="-166.3" font-family="Times,serif" font-size="14.00" fill="#000000">implus_length : float</text>
<text text-anchor="start" x="2405" y="-151.3" font-family="Times,serif" font-size="14.00" fill="#000000">preparation_time : float</text>
<text text-anchor="start" x="2405" y="-136.3" font-family="Times,serif" font-size="14.00" fill="#000000">timeout : float</text>
<polyline fill="none" stroke="#000000" points="2397,-128.5 2543,-128.5 "/>
<text text-anchor="start" x="2432" y="-113.3" font-family="Times,serif" font-size="14.00" fill="#000000">distance(): int</text>
<text text-anchor="start" x="2432" y="-98.3" font-family="Times,serif" font-size="14.00" fill="#000000">stop(): None</text>
<text text-anchor="start" x="2432" y="-83.3" font-family="Times,serif" font-size="14.00" fill="#000000">test(): None</text>
</g>
</g>
</svg>
