<?xml version="1.0" encoding="UTF-8" standalone="no"?>
<!DOCTYPE svg PUBLIC "-//W3C//DTD SVG 1.1//EN"
 "http://www.w3.org/Graphics/SVG/1.1/DTD/svg11.dtd">
<!-- Generated by graphviz version 2.40.1 (20161225.0304)
 -->
<!-- Title: packages_Camp2Code_P1 Pages: 1 -->
<svg width="438pt" height="332pt"
 viewBox="0.00 0.00 438.00 332.00" xmlns="http://www.w3.org/2000/svg" xmlns:xlink="http://www.w3.org/1999/xlink">
<g id="graph0" class="graph" transform="scale(1 1) rotate(0) translate(4 328)">
<title>packages_Camp2Code_P1</title>
<polygon fill="#ffffff" stroke="transparent" points="-4,4 -4,-328 434,-328 434,4 -4,4"/>
<!-- Camp2Code_P1 -->
<g id="node1" class="node">
<title>Camp2Code_P1</title>
<polygon fill="none" stroke="#000000" points="106,-36 0,-36 0,0 106,0 106,-36"/>
<text text-anchor="middle" x="53" y="-14.3" font-family="Times,serif" font-size="14.00" fill="#000000">Camp2Code_P1</text>
</g>
<!-- Camp2Code_P1.app_data -->
<g id="node2" class="node">
<title>Camp2Code_P1.app_data</title>
<polygon fill="none" stroke="#000000" points="191,-108 33,-108 33,-72 191,-72 191,-108"/>
<text text-anchor="middle" x="112" y="-86.3" font-family="Times,serif" font-size="14.00" fill="#000000">Camp2Code_P1.app_data</text>
</g>
<!-- Camp2Code_P1.app_gui -->
<g id="node3" class="node">
<title>Camp2Code_P1.app_gui</title>
<polygon fill="none" stroke="#000000" points="277.5,-36 124.5,-36 124.5,0 277.5,0 277.5,-36"/>
<text text-anchor="middle" x="201" y="-14.3" font-family="Times,serif" font-size="14.00" fill="#000000">Camp2Code_P1.app_gui</text>
</g>
<!-- Camp2Code_P1.app_gui&#45;&gt;Camp2Code_P1.app_data -->
<g id="edge1" class="edge">
<title>Camp2Code_P1.app_gui&#45;&gt;Camp2Code_P1.app_data</title>
<path fill="none" stroke="#000000" d="M178.5415,-36.1686C167.5795,-45.0368 154.2301,-55.8363 142.3735,-65.4282"/>
<polygon fill="#000000" stroke="#000000" points="134.4513,-71.8372 139.3955,-62.0491 138.3385,-68.6924 142.2258,-65.5477 142.2258,-65.5477 142.2258,-65.5477 138.3385,-68.6924 145.0561,-69.0462 134.4513,-71.8372 134.4513,-71.8372"/>
</g>
<!-- Camp2Code_P1.sensorcar -->
<g id="node7" class="node">
<title>Camp2Code_P1.sensorcar</title>
<polygon fill="none" stroke="#000000" points="370.5,-108 209.5,-108 209.5,-72 370.5,-72 370.5,-108"/>
<text text-anchor="middle" x="290" y="-86.3" font-family="Times,serif" font-size="14.00" fill="#000000">Camp2Code_P1.sensorcar</text>
</g>
<!-- Camp2Code_P1.app_gui&#45;&gt;Camp2Code_P1.sensorcar -->
<g id="edge2" class="edge">
<title>Camp2Code_P1.app_gui&#45;&gt;Camp2Code_P1.sensorcar</title>
<path fill="none" stroke="#000000" d="M223.4585,-36.1686C234.4205,-45.0368 247.7699,-55.8363 259.6265,-65.4282"/>
<polygon fill="#000000" stroke="#000000" points="267.5487,-71.8372 256.9439,-69.0462 263.6615,-68.6924 259.7742,-65.5477 259.7742,-65.5477 259.7742,-65.5477 263.6615,-68.6924 262.6045,-62.0491 267.5487,-71.8372 267.5487,-71.8372"/>
</g>
<!-- Camp2Code_P1.basecar -->
<g id="node4" class="node">
<title>Camp2Code_P1.basecar</title>
<polygon fill="none" stroke="#000000" points="415,-252 265,-252 265,-216 415,-216 415,-252"/>
<text text-anchor="middle" x="340" y="-230.3" font-family="Times,serif" font-size="14.00" fill="#000000">Camp2Code_P1.basecar</text>
</g>
<!-- Camp2Code_P1.basisklassen -->
<g id="node5" class="node">
<title>Camp2Code_P1.basisklassen</title>
<polygon fill="none" stroke="#000000" points="428,-324 252,-324 252,-288 428,-288 428,-324"/>
<text text-anchor="middle" x="340" y="-302.3" font-family="Times,serif" font-size="14.00" fill="#000000">Camp2Code_P1.basisklassen</text>
</g>
<!-- Camp2Code_P1.basecar&#45;&gt;Camp2Code_P1.basisklassen -->
<g id="edge3" class="edge">
<title>Camp2Code_P1.basecar&#45;&gt;Camp2Code_P1.basisklassen</title>
<path fill="none" stroke="#000000" d="M340,-252.1686C340,-259.869 340,-269.0257 340,-277.5834"/>
<polygon fill="#000000" stroke="#000000" points="340,-287.5867 335.5001,-277.5867 340,-282.5867 340.0001,-277.5867 340.0001,-277.5867 340.0001,-277.5867 340,-282.5867 344.5001,-277.5868 340,-287.5867 340,-287.5867"/>
</g>
<!-- Camp2Code_P1.conf -->
<g id="node6" class="node">
<title>Camp2Code_P1.conf</title>
<polygon fill="none" stroke="#000000" points="430,-36 296,-36 296,0 430,0 430,-36"/>
<text text-anchor="middle" x="363" y="-14.3" font-family="Times,serif" font-size="14.00" fill="#000000">Camp2Code_P1.conf</text>
</g>
<!-- Camp2Code_P1.sensorcar&#45;&gt;Camp2Code_P1.basisklassen -->
<g id="edge4" class="edge">
<title>Camp2Code_P1.sensorcar&#45;&gt;Camp2Code_P1.basisklassen</title>
<path fill="none" stroke="#000000" d="M274.886,-108.2232C267.6451,-118.1414 259.7476,-131.0142 256,-144 242.6906,-190.1179 232.999,-209.8698 256,-252 262.8856,-264.612 274.1175,-274.7178 286.1598,-282.6183"/>
<polygon fill="#000000" stroke="#000000" points="295.0211,-287.9855 284.1363,-286.6537 290.7444,-285.3951 286.4677,-282.8047 286.4677,-282.8047 286.4677,-282.8047 290.7444,-285.3951 288.7991,-278.9557 295.0211,-287.9855 295.0211,-287.9855"/>
</g>
<!-- Camp2Code_P1.soniccar -->
<g id="node8" class="node">
<title>Camp2Code_P1.soniccar</title>
<polygon fill="none" stroke="#000000" points="420.5,-180 265.5,-180 265.5,-144 420.5,-144 420.5,-180"/>
<text text-anchor="middle" x="343" y="-158.3" font-family="Times,serif" font-size="14.00" fill="#000000">Camp2Code_P1.soniccar</text>
</g>
<!-- Camp2Code_P1.sensorcar&#45;&gt;Camp2Code_P1.soniccar -->
<g id="edge5" class="edge">
<title>Camp2Code_P1.sensorcar&#45;&gt;Camp2Code_P1.soniccar</title>
<path fill="none" stroke="#000000" d="M303.3741,-108.1686C309.4162,-116.3768 316.6763,-126.2394 323.3221,-135.2677"/>
<polygon fill="#000000" stroke="#000000" points="329.4458,-143.5867 319.8936,-138.201 326.4817,-139.56 323.5176,-135.5333 323.5176,-135.5333 323.5176,-135.5333 326.4817,-139.56 327.1416,-132.8656 329.4458,-143.5867 329.4458,-143.5867"/>
</g>
<!-- Camp2Code_P1.soniccar&#45;&gt;Camp2Code_P1.basecar -->
<g id="edge6" class="edge">
<title>Camp2Code_P1.soniccar&#45;&gt;Camp2Code_P1.basecar</title>
<path fill="none" stroke="#000000" d="M342.243,-180.1686C341.9221,-187.869 341.5406,-197.0257 341.184,-205.5834"/>
<polygon fill="#000000" stroke="#000000" points="340.7672,-215.5867 336.6875,-205.408 340.9754,-210.5911 341.1836,-205.5954 341.1836,-205.5954 341.1836,-205.5954 340.9754,-210.5911 345.6797,-205.7828 340.7672,-215.5867 340.7672,-215.5867"/>
</g>
<!-- Camp2Code_P1.soniccar&#45;&gt;Camp2Code_P1.basisklassen -->
<g id="edge7" class="edge">
<title>Camp2Code_P1.soniccar&#45;&gt;Camp2Code_P1.basisklassen</title>
<path fill="none" stroke="#000000" d="M385.9854,-180.1146C400.7829,-188.6849 415.7061,-200.5028 424,-216 431.5497,-230.1068 431.667,-237.9566 424,-252 417.1144,-264.612 405.8825,-274.7178 393.8402,-282.6183"/>
<polygon fill="#000000" stroke="#000000" points="384.9789,-287.9855 391.2009,-278.9557 389.2556,-285.3951 393.5323,-282.8047 393.5323,-282.8047 393.5323,-282.8047 389.2556,-285.3951 395.8637,-286.6537 384.9789,-287.9855 384.9789,-287.9855"/>
</g>
</g>
</svg>
